<svg xmlns="http://www.w3.org/2000/svg" xmlns:xlink="http://www.w3.org/1999/xlink" id="body_2" preserveAspectRatio="xMinYMin meet" viewBox="0 0 2560 1440"><defs><clipPath id="1"><path id="" clip-rule="evenodd" transform="matrix(1 0 0 1 0 0)" d="M0 1080L0 0L0 0L1920 0L1920 0L1920 1080L1920 1080L0 1080z" /></clipPath><clipPath id="2"><path id="" clip-rule="evenodd" transform="matrix(1 0 0 1 0 0)" d="M0 1080L1920 1080L1920 1080L1920 0L1920 0L0 0z" /></clipPath><clipPath id="3"><path id="" clip-rule="evenodd" transform="matrix(1 0 0 1 0 0)" d="M1826.56 73.63L1854.302 73.63L1854.302 73.63L1854.302 67.70618L1854.302 67.70618L1826.56 67.70618z" /></clipPath><clipPath id="4"><path id="" clip-rule="evenodd" transform="matrix(1 0 0 1 0 0)" d="M1826.56 84.953L1854.302 84.953L1854.302 84.953L1854.302 79.02881L1854.302 79.02881L1826.56 79.02881z" /></clipPath><clipPath id="5"><path id="" clip-rule="evenodd" transform="matrix(1 0 0 1 0 0)" d="M1826.56 96.27899L1854.302 96.27899L1854.302 96.27899L1854.302 90.35516L1854.302 90.35516L1826.56 90.35516z" /></clipPath><clipPath id="6"><path id="" clip-rule="evenodd" transform="matrix(1 0 0 1 0 0)" d="M1823.92 998.7898L1854.293 998.7898L1854.293 998.7898L1854.293 992.3578L1854.293 992.3578L1823.92 992.3578z" /></clipPath><clipPath id="7"><path id="" clip-rule="evenodd" transform="matrix(1 0 0 1 0 0)" d="M1835.89 1010.761L1842.323 1010.761L1842.323 1010.761L1842.323 980.3879L1842.323 980.3879L1835.89 980.3879z" /></clipPath><clipPath id="8"><path id="" clip-rule="evenodd" transform="matrix(1 0 0 1 0 0)" d="M65 1025L87 1025L87 1025L87 886L87 886L65 886z" /></clipPath><clipPath id="9"><path id="" clip-rule="evenodd" transform="matrix(1 0 0 1 0 0)" d="M65 1025L87 1025L87 1025L87 886L87 886L65 886z" /></clipPath><clipPath id="10"><path id="" clip-rule="evenodd" transform="matrix(1 0 0 1 0 0)" d="M65 1025L87 1025L87 1025L87 886L87 886L65 886z" /></clipPath><clipPath id="11"><path id="" clip-rule="evenodd" transform="matrix(1 0 0 1 0 0)" d="M65.812 96.453L84.13 96.453L84.13 96.453L84.13 90.86084L84.13 90.86084L65.812 90.86084z" /></clipPath><clipPath id="12"><path id="" clip-rule="evenodd" transform="matrix(1 0 0 1 0 0)" d="M65.812 86.52301L90.1839 86.52301L90.1839 86.52301L90.1839 80.93121L90.1839 80.93121L65.812 80.93121z" /></clipPath><clipPath id="13"><path id="" clip-rule="evenodd" transform="matrix(1 0 0 1 0 0)" d="M65.812 76.59003L90.1839 76.59003L90.1839 76.59003L90.1839 70.99786L90.1839 70.99786L65.812 70.99786z" /></clipPath><clipPath id="14"><path id="" clip-rule="evenodd" transform="matrix(1 0 0 1 0 0)" d="M610 606.948L1222 606.948L1222 606.948L1222 507.541L1222 507.541L610 507.541z" /></clipPath><clipPath id="15"><path id="" clip-rule="evenodd" transform="matrix(1 0 0 1 0 0)" d="M0 1080L1920 1080L1920 1080L1920 0L1920 0L0 0z" /></clipPath></defs><g transform="matrix(1.333333 0 0 1.333333 0 0)"><g clip-path="url(#1)"><g clip-path="url(#2)"></g><g clip-path="url(#3)"><path id="17" transform="matrix(1 0 0 -1 0 1080)" d="M1821.56 1001.37L1859.302 1001.37L1859.302 1017.294L1821.56 1017.294z" stroke="none" fill="#060001" fill-rule="nonzero" /></g><g clip-path="url(#4)"><path id="18" transform="matrix(1 0 0 -1 0 1080)" d="M1821.56 990.047L1859.302 990.047L1859.302 1005.971L1821.56 1005.971z" stroke="none" fill="#060001" fill-rule="nonzero" /></g><g clip-path="url(#5)"><path id="19" transform="matrix(1 0 0 -1 0 1080)" d="M1821.56 978.721L1859.302 978.721L1859.302 994.6448L1821.56 994.6448z" stroke="none" fill="#060001" fill-rule="nonzero" /></g><g clip-path="url(#6)"><path id="20" transform="matrix(1 0 0 -1 0 1080)" d="M1818.92 76.2102L1859.293 76.2102L1859.293 92.6422L1818.92 92.6422z" stroke="none" fill="#201613" fill-rule="nonzero" /></g><g clip-path="url(#7)"><path id="21" transform="matrix(1 0 0 -1 0 1080)" d="M1830.89 64.2391L1847.323 64.2391L1847.323 104.6121L1830.89 104.6121z" stroke="none" fill="#201613" fill-rule="nonzero" /></g><g clip-path="url(#8)"><g><g clip-path="url(#9)"><g clip-path="url(#10)"><path id="22" transform="matrix(1 0 0 -1 0 1080)" d="M60 50L92 50L92 199L60 199z" stroke="none" fill="#FFFFFF" fill-rule="nonzero" /><g transform="matrix(0.4912226 0 0 0.4912218 65.2988 885.6645)"><g transform="matrix(1 0 0 1 0 0)"><image x="0" y="0" xlink:href="img_02.png" width="31" height="275" /></g></g></g></g></g></g><g clip-path="url(#11)"><path id="24" transform="matrix(1 0 0 -1 0 1080)" d="M60.812 978.547L89.13 978.547L89.13 994.1392L60.812 994.1392z" stroke="none" fill="#353939" fill-rule="nonzero" /></g><g clip-path="url(#12)"><path id="25" transform="matrix(1 0 0 -1 0 1080)" d="M60.812 988.477L95.1839 988.477L95.1839 1004.069L60.812 1004.069z" stroke="none" fill="#353939" fill-rule="nonzero" /></g><g clip-path="url(#13)"><path id="26" transform="matrix(1 0 0 -1 0 1080)" d="M60.812 998.408L95.1839 998.408L95.1839 1014L60.812 1014z" stroke="none" fill="#353939" fill-rule="nonzero" /></g><g clip-path="url(#14)"><path id="27" transform="matrix(1 0 0 -1 0 1080)" d="M605 468.052L1227 468.052L1227 577.459L605 577.459z" stroke="none" fill="#FF9DA7" fill-rule="nonzero" /></g><g clip-path="url(#15)"><g transform="matrix(0.5004343 0 0 0.5002423 940.788 280)"><g transform="matrix(1 0 0 1 0 0)"><image x="0" y="0" xlink:href="img_04.png" width="776" height="908" /></g></g></g></g></g></svg>