<svg xmlns="http://www.w3.org/2000/svg" xmlns:xlink="http://www.w3.org/1999/xlink" id="body_3" preserveAspectRatio="xMinYMin meet" viewBox="0 0 2560 1440"><defs><clipPath id="1"><path id="" clip-rule="evenodd" transform="matrix(1 0 0 1 0 0)" d="M0 1080L0 0L0 0L1920 0L1920 0L1920 1080L1920 1080L0 1080z" /></clipPath><clipPath id="2"><path id="" clip-rule="evenodd" transform="matrix(1 0 0 1 0 0)" d="M0 1080L1920 1080L1920 1080L1920 0L1920 0L0 0z" /></clipPath><clipPath id="3"><path id="" clip-rule="evenodd" transform="matrix(1 0 0 1 0 0)" d="M612.48 701.729L627.625 701.729L627.625 701.729L627.625 689.69L627.625 689.69L612.48 689.69z" /></clipPath><clipPath id="4"><path id="" clip-rule="evenodd" transform="matrix(1 0 0 1 0 0)" d="M612 702L628 702L628 702L628 689L628 689L612 689z" /></clipPath><clipPath id="5"><path id="" clip-rule="evenodd" transform="matrix(1 0 0 1 0 0)" d="M614.459 700.564L625.645 700.564C 626.095 700.564 626.459 700.199 626.459 699.748L626.459 699.748L626.459 691.67C 626.459 691.22 626.095 690.855 625.645 690.855L625.645 690.855L614.459 690.855C 614.009 690.855 613.643 691.22 613.643 691.67L613.643 691.67L613.643 699.748C 613.643 700.199 614.009 700.564 614.459 700.564L614.459 700.564L614.459 700.564zM614.459 701.729C 613.364 701.729 612.477 700.842 612.477 699.748L612.477 699.748L612.477 691.67C 612.477 690.576 613.364 689.69 614.459 689.69L614.459 689.69L625.645 689.69C 626.738 689.69 627.625 690.576 627.625 691.67L627.625 691.67L627.625 699.748C 627.625 700.842 626.738 701.729 625.645 701.729L625.645 701.729L614.459 701.729z" /></clipPath><clipPath id="6"><path id="" clip-rule="evenodd" transform="matrix(1 0 0 1 0 0)" d="M612 702L628 702L628 702L628 689L628 689L612 689z" /></clipPath><clipPath id="7"><path id="" clip-rule="evenodd" transform="matrix(1 0 0 1 0 0)" d="M613.271 691.437C 613.084 691.346 612.96 691.162 612.945 690.954C 612.931 690.746 613.028 690.546 613.201 690.43C 613.373 690.314 613.595 690.298 613.782 690.389L613.782 690.389L619.899 693.375C 619.995 693.421 620.108 693.421 620.204 693.375L620.204 693.375L626.321 690.389C 626.508 690.298 626.73 690.314 626.902 690.43C 627.075 690.546 627.172 690.746 627.158 690.954C 627.143 691.162 627.019 691.346 626.832 691.437L626.832 691.437L620.716 694.422C 620.297 694.627 619.806 694.627 619.387 694.422" /></clipPath><clipPath id="8"><path id="" clip-rule="evenodd" transform="matrix(1 0 0 1 0 0)" d="M0 1080L1920 1080L1920 1080L1920 0L1920 0L0 0z" /></clipPath><clipPath id="9"><path id="" clip-rule="evenodd" transform="matrix(1 0 0 1 0 0)" d="M611.298 646.644L627.5817 646.644L627.5817 646.644L627.5817 630.316L627.5817 630.316L611.298 630.316z" /></clipPath><clipPath id="10"><path id="" clip-rule="evenodd" transform="matrix(1 0 0 1 0 0)" d="M611 647L628 647L628 647L628 630L628 630L611 630z" /></clipPath><clipPath id="11"><path id="" clip-rule="evenodd" transform="matrix(1 0 0 1 0 0)" d="M623.495 630.316C 620.799 630.316 617.685 632.187 615.42 634.466C 612.106 637.802 609.663 642.966 612.64 645.961C 612.836 646.159 613.475 646.644 614.303 646.644C 614.45 646.644 614.601 646.629 614.757 646.594C 615.986 646.325 619.462 643.495 617.358 641.398C 616.615 640.658 616.252 640.553 616.029 640.553C 615.943 640.553 615.878 640.569 615.82 640.569C 615.768 640.569 615.722 640.556 615.671 640.51C 615.184 640.066 615.934 638.316 617.591 636.649C 618.904 635.328 620.277 634.604 621.011 634.604C 621.204 634.604 621.353 634.654 621.445 634.756C 621.676 635.011 620.966 635.237 622.253 636.52C 622.726 636.991 623.236 637.183 623.746 637.183C 625.535 637.183 627.328 634.822 627.536 633.859C 627.764 632.809 627.077 631.899 626.846 631.668C 625.903 630.718 624.744 630.316 623.495 630.316M623.495 631.337C 624.562 631.337 625.423 631.681 626.125 632.387C 626.237 632.501 626.664 633.078 626.541 633.642C 626.411 634.241 624.958 636.162 623.746 636.162C 623.571 636.162 623.3 636.124 622.971 635.796C 622.632 635.458 622.516 635.267 622.479 635.194C 622.517 635.007 622.6 634.515 622.199 634.072C 621.999 633.849 621.629 633.583 621.011 633.583C 619.911 633.583 618.285 634.504 616.87 635.928C 615.708 637.098 614.476 638.818 614.508 640.14C 614.521 640.721 614.775 641.071 614.984 641.264C 615.217 641.477 615.506 641.59 615.82 641.59C 615.87 641.59 615.922 641.587 615.984 641.58C 616.06 641.619 616.263 641.746 616.641 642.123C 616.982 642.463 617.074 642.793 616.949 643.224C 616.624 644.341 615.073 645.481 614.54 645.598C 614.462 645.615 614.383 645.624 614.303 645.624C 613.836 645.624 613.442 645.322 613.361 645.24C 610.715 642.578 613.575 637.769 616.141 635.186C 618.5 632.812 621.318 631.337 623.495 631.337" /></clipPath><clipPath id="12"><path id="" clip-rule="evenodd" transform="matrix(1 0 0 1 0 0)" d="M611 647L628 647L628 647L628 630L628 630L611 630z" /></clipPath><clipPath id="13"><path id="" clip-rule="evenodd" transform="matrix(1 0 0 1 0 0)" d="M611.478 676.234L628.6314 676.234L628.6314 676.234L628.6314 659.9185L628.6314 659.9185L611.478 659.9185z" /></clipPath><clipPath id="14"><path id="" clip-rule="evenodd" transform="matrix(1 0 0 1 0 0)" d="M611 677L629 677L629 677L629 659L629 659L611 659z" /></clipPath><clipPath id="15"><path id="" clip-rule="evenodd" transform="matrix(1 0 0 1 0 0)" d="M626.436 662.545C 623.947 660.1 620.918 659.391 617.589 660.289C 611.727 661.871 609.913 667.97 612.874 671.945C 613.018 672.137 613.045 672.493 612.991 672.743C 612.831 673.473 612.598 674.187 612.404 674.912C 612.299 675.298 612.238 675.691 612.584 676.002C 612.957 676.336 613.357 676.266 613.764 676.06C 614.432 675.72 615.113 675.404 615.771 675.046C 616.2 674.814 616.584 674.802 617.069 674.937C 618.035 675.205 619.033 675.354 619.541 675.455C 622.566 675.401 624.773 674.582 626.54 672.741C 629.356 669.814 629.335 665.394 626.436 662.545M625.595 671.837C 623.289 674.126 620.483 674.673 617.448 673.655C 616.448 673.32 615.261 673.701 614.393 674.289C 614.393 674.289 614.27 674.332 614.009 674.418C 613.938 674.441 613.874 674.366 613.909 674.3C 614.588 672.98 614.351 671.718 613.706 670.779C 612.21 668.596 612.516 665.785 614.296 663.754C 617.206 660.437 622.904 660.441 625.814 663.757C 627.923 666.164 627.879 669.571 625.595 671.837M622.891 665.398C 622.42 665.38 622.04 665.732 622.013 666.209C 621.986 666.696 622.313 667.073 622.79 667.109C 623.266 667.145 623.665 666.818 623.714 666.352C 623.766 665.86 623.383 665.418 622.891 665.398M616.933 665.398C 616.435 665.402 616.056 665.823 616.093 666.332C 616.129 666.807 616.509 667.136 616.994 667.107C 617.469 667.08 617.822 666.698 617.804 666.229C 617.788 665.773 617.389 665.395 616.933 665.398" /></clipPath><clipPath id="16"><path id="" clip-rule="evenodd" transform="matrix(1 0 0 1 0 0)" d="M611 677L629 677L629 677L629 659L629 659L611 659z" /></clipPath></defs><g transform="matrix(1.333333 0 0 1.333333 0 0)"><g clip-path="url(#1)"><g clip-path="url(#2)"><g transform="matrix(0.8779975 0 0 0.8779974 712.253 221.043)"><g transform="matrix(1 0 0 1 0 0)"><image x="0" y="0" xlink:href="img_06.png" width="814" height="771" /></g></g></g><g clip-path="url(#3)"><g><g clip-path="url(#4)"><g clip-path="url(#5)"><g clip-path="url(#6)"><path id="62" transform="matrix(1 0 0 -1 0 1080)" d="M607.477 373.271L632.625 373.271L632.625 395.31L607.477 395.31z" stroke="none" fill="#000000" fill-rule="nonzero" /></g></g></g></g></g><g clip-path="url(#7)"><g clip-path="url(#8)"><path id="63" transform="matrix(1 0 0 -1 0 1080)" d="M607.944 380.424L632.1595 380.424L632.1595 394.6694L607.944 394.6694z" stroke="none" fill="#000000" fill-rule="nonzero" /></g></g><g clip-path="url(#9)"><g><g clip-path="url(#10)"><g clip-path="url(#11)"><g clip-path="url(#12)"><path id="64" transform="matrix(1 0 0 -1 0 1080)" d="M606.298 428.356L632.5818 428.356L632.5818 454.684L606.298 454.684z" stroke="none" fill="#000000" fill-rule="nonzero" /></g></g></g></g></g><g clip-path="url(#13)"><g><g clip-path="url(#14)"><g clip-path="url(#15)"><g clip-path="url(#16)"><path id="65" transform="matrix(1 0 0 -1 0 1080)" d="M606.474 398.766L633.631 398.766L633.631 425.0841L606.474 425.0841z" stroke="none" fill="#000000" fill-rule="nonzero" /></g></g></g></g></g></g></g></svg>