<svg xmlns="http://www.w3.org/2000/svg" xmlns:xlink="http://www.w3.org/1999/xlink" id="body_1" preserveAspectRatio="xMinYMin meet" viewBox="0 0 2560 1440"><defs><clipPath id="1"><path id="" clip-rule="evenodd" transform="matrix(1 0 0 1 0 0)" d="M0 1080L0 0L0 0L1920 0L1920 0L1920 1080L1920 1080L0 1080z" /></clipPath><clipPath id="2"><path id="" clip-rule="evenodd" transform="matrix(1 0 0 1 0 0)" d="M1826.56 73.63L1854.302 73.63L1854.302 73.63L1854.302 67.70618L1854.302 67.70618L1826.56 67.70618z" /></clipPath><clipPath id="3"><path id="" clip-rule="evenodd" transform="matrix(1 0 0 1 0 0)" d="M1826.56 84.953L1854.302 84.953L1854.302 84.953L1854.302 79.02881L1854.302 79.02881L1826.56 79.02881z" /></clipPath><clipPath id="4"><path id="" clip-rule="evenodd" transform="matrix(1 0 0 1 0 0)" d="M1826.56 96.27899L1854.302 96.27899L1854.302 96.27899L1854.302 90.35516L1854.302 90.35516L1826.56 90.35516z" /></clipPath><clipPath id="5"><path id="" clip-rule="evenodd" transform="matrix(1 0 0 1 0 0)" d="M1823.92 998.7898L1854.293 998.7898L1854.293 998.7898L1854.293 992.3578L1854.293 992.3578L1823.92 992.3578z" /></clipPath><clipPath id="6"><path id="" clip-rule="evenodd" transform="matrix(1 0 0 1 0 0)" d="M1835.89 1010.761L1842.322 1010.761L1842.322 1010.761L1842.322 980.3879L1842.322 980.3879L1835.89 980.3879z" /></clipPath><clipPath id="7"><path id="" clip-rule="evenodd" transform="matrix(1 0 0 1 0 0)" d="M588.087 540C 588.087 745.151 754.395 911.461 959.548 911.461L959.548 911.461L959.548 911.461C 1164.7 911.461 1331.01 745.151 1331.01 540L1331.01 540L1331.01 540C 1331.01 334.849 1164.7 168.539 959.548 168.539L959.548 168.539L959.548 168.539C 754.395 168.539 588.087 334.849 588.087 540" /></clipPath><clipPath id="8"><path id="" clip-rule="evenodd" transform="matrix(1 0 0 1 0 0)" d="M0 1080L1920 1080L1920 1080L1920 0L1920 0L0 0z" /></clipPath><clipPath id="9"><path id="" clip-rule="evenodd" transform="matrix(1 0 0 1 0 0)" d="M588 912L1332 912L1332 912L1332 168L1332 168L588 168z" /></clipPath><clipPath id="10"><path id="" clip-rule="evenodd" transform="matrix(1 0 0 1 0 0)" d="M588.087 540C 588.087 745.151 754.395 911.461 959.548 911.461L959.548 911.461L959.548 911.461C 1164.7 911.461 1331.01 745.151 1331.01 540L1331.01 540L1331.01 540C 1331.01 334.849 1164.7 168.539 959.548 168.539L959.548 168.539L959.548 168.539C 754.395 168.539 588.087 334.849 588.087 540" /></clipPath><clipPath id="11"><path id="" clip-rule="evenodd" transform="matrix(1 0 0 1 0 0)" d="M588 912L1332 912L1332 912L1332 168L1332 168L588 168z" /></clipPath><clipPath id="12"><path id="" clip-rule="evenodd" transform="matrix(1 0 0 1 0 0)" d="M497.614 830.708L1427.153 830.708L1427.153 830.708L1427.153 248.18L1427.153 248.18L497.614 248.18z" /></clipPath><clipPath id="13"><path id="" clip-rule="evenodd" transform="matrix(1 0 0 1 0 0)" d="M676.303 459.222L1242.791 459.222L1242.791 459.222L1242.791 431.524L1242.791 431.524L676.303 431.524z" /></clipPath><clipPath id="14"><path id="" clip-rule="evenodd" transform="matrix(1 0 0 1 0 0)" d="M0 1080L1920 1080L1920 1080L1920 0L1920 0L0 0z" /></clipPath><clipPath id="15"><path id="" clip-rule="evenodd" transform="matrix(1 0 0 1 0 0)" d="M685.26 715.282L685.26 714.793L685.26 714.793L689.278 714.793C 690.942 714.793 692.237 715.219 693.16 716.069C 694.083 716.92 694.545 718.16 694.545 719.789C 694.545 720.296 694.49 720.785 694.382 721.255C 694.273 721.725 694.092 722.187 693.839 722.639C 693.585 723.092 693.269 723.481 692.889 723.807C 692.508 724.132 692.02 724.404 691.423 724.621C 690.825 724.838 690.147 724.947 689.386 724.947L689.386 724.947L685.26 724.947L685.26 724.947L685.26 724.512L685.26 724.512L685.748 724.512C 686.038 724.512 686.273 724.431 686.454 724.268C 686.635 724.105 686.726 723.861 686.726 723.535L686.726 723.535L686.726 716.205C 686.726 715.915 686.644 715.689 686.481 715.526C 686.319 715.363 686.074 715.282 685.748 715.282M687.866 716.205L687.866 723.535C 687.866 723.825 687.947 724.06 688.11 724.241C 688.273 724.423 688.518 724.512 688.843 724.512L688.843 724.512L689.495 724.512C 690.291 724.512 690.988 724.287 691.585 723.834C 692.183 723.381 692.617 722.802 692.889 722.096C 693.16 721.39 693.296 720.585 693.296 719.68C 693.296 719.282 693.26 718.902 693.187 718.54C 693.114 718.178 692.997 717.789 692.834 717.372C 692.671 716.957 692.454 716.604 692.183 716.314C 691.911 716.024 691.549 715.78 691.097 715.581C 690.644 715.382 690.128 715.282 689.549 715.282L689.549 715.282L688.843 715.282C 688.518 715.282 688.273 715.363 688.11 715.526C 687.947 715.689 687.866 715.915 687.866 716.205" /></clipPath><clipPath id="16"><path id="" clip-rule="evenodd" transform="matrix(1 0 0 1 0 0)" d="M0 1080L1920 1080L1920 1080L1920 0L1920 0L0 0z" /></clipPath><clipPath id="17"><path id="" clip-rule="evenodd" transform="matrix(1 0 0 1 0 0)" d="M802.727 719.898L801.152 719.898L801.152 719.898L801.152 723.536C 801.152 723.862 801.234 724.105 801.397 724.269C 801.56 724.432 801.804 724.512 802.13 724.512L802.13 724.512L803.216 724.512C 803.65 724.512 804.048 724.459 804.41 724.35C 804.772 724.241 805.071 724.125 805.306 723.996C 805.541 723.871 805.768 723.68 805.985 723.427C 806.202 723.173 806.365 722.984 806.474 722.857C 806.582 722.73 806.709 722.523 806.854 722.232L806.854 722.232L807.288 722.396L807.288 722.396L806.311 724.948L806.311 724.948L798.546 724.948L798.546 724.948L798.546 724.512L798.546 724.512L799.035 724.512C 799.324 724.512 799.56 724.432 799.741 724.269C 799.922 724.105 800.012 723.862 800.012 723.536L800.012 723.536L800.012 716.205C 800.012 715.916 799.931 715.689 799.768 715.527C 799.605 715.364 799.361 715.282 799.035 715.282L799.035 715.282L798.546 715.282L798.546 715.282L798.546 714.794L798.546 714.794L806.093 714.794L806.093 714.794L807.017 717.075L807.017 717.075L806.636 717.291C 805.804 715.953 804.808 715.282 803.65 715.282L803.65 715.282L802.13 715.282C 801.84 715.282 801.605 715.364 801.424 715.527C 801.243 715.689 801.152 715.916 801.152 716.205L801.152 716.205L801.152 719.464L801.152 719.464L802.727 719.464C 803.777 719.464 804.302 719.011 804.302 718.105L804.302 718.105L804.302 717.726L804.302 717.726L804.736 717.726L804.736 717.726L804.736 721.689L804.736 721.689L804.302 721.689L804.302 721.689L804.302 721.31C 804.302 720.839 804.157 720.487 803.867 720.251C 803.578 720.016 803.198 719.898 802.727 719.898" /></clipPath><clipPath id="18"><path id="" clip-rule="evenodd" transform="matrix(1 0 0 1 0 0)" d="M0 1080L1920 1080L1920 1080L1920 0L1920 0L0 0z" /></clipPath><clipPath id="19"><path id="" clip-rule="evenodd" transform="matrix(1 0 0 1 0 0)" d="M916.557 714.522L917.534 716.965L917.534 716.965L917.1 717.128C 916.955 716.876 916.818 716.658 916.693 716.477C 916.566 716.296 916.375 716.069 916.123 715.798C 915.868 715.527 915.57 715.328 915.227 715.201C 914.882 715.074 914.493 715.011 914.059 715.011C 913.696 715.011 913.38 715.074 913.109 715.201C 912.838 715.328 912.639 715.491 912.511 715.689C 912.384 715.888 912.295 716.088 912.239 716.287C 912.186 716.486 912.159 716.658 912.159 716.803C 912.159 717.382 912.357 717.816 912.755 718.106C 913.154 718.396 913.841 718.703 914.818 719.029C 915.325 719.21 915.779 719.409 916.177 719.626C 916.791 719.952 917.254 720.305 917.561 720.685C 917.868 721.065 918.023 721.581 918.023 722.232C 918.023 723.101 917.723 723.816 917.127 724.377C 916.53 724.939 915.814 725.219 914.982 725.219C 914.584 725.219 914.095 725.128 913.516 724.947C 913.263 724.839 913.064 724.784 912.918 724.784C 912.63 724.784 912.266 724.912 911.832 725.164L911.832 725.164L910.8 722.504L910.8 722.504L911.343 722.232C 911.705 722.884 912.068 723.372 912.43 723.698C 913.191 724.386 914.023 724.73 914.927 724.73C 915.47 724.73 915.95 724.549 916.366 724.187C 916.782 723.826 916.991 723.3 916.991 722.612C 916.991 722.034 916.8 721.581 916.42 721.255C 916.041 720.929 915.361 720.603 914.384 720.277C 913.298 719.916 912.493 719.509 911.968 719.056C 911.443 718.603 911.182 717.997 911.182 717.237C 911.182 716.477 911.425 715.834 911.914 715.309C 912.402 714.785 913.082 714.522 913.95 714.522C 914.275 714.522 914.602 714.558 914.927 714.631C 915.325 714.739 915.616 714.793 915.796 714.793C 916.123 714.793 916.375 714.704 916.557 714.522" /></clipPath><clipPath id="20"><path id="" clip-rule="evenodd" transform="matrix(1 0 0 1 0 0)" d="M0 1080L1920 1080L1920 1080L1920 0L1920 0L0 0z" /></clipPath><clipPath id="21"><path id="" clip-rule="evenodd" transform="matrix(1 0 0 1 0 0)" d="M1025.99 714.793L1025.99 715.282L1025.99 715.282L1025.34 715.282C 1025.05 715.282 1024.81 715.363 1024.63 715.527C 1024.45 715.689 1024.36 715.916 1024.36 716.205L1024.36 716.205L1024.36 723.536C 1024.36 723.861 1024.44 724.105 1024.6 724.268C 1024.77 724.432 1025.01 724.512 1025.34 724.512L1025.34 724.512L1025.99 724.512L1025.99 724.512L1025.99 724.948L1025.99 724.948L1021.59 724.948L1021.59 724.948L1021.59 724.512L1021.59 724.512L1022.24 724.512C 1022.53 724.512 1022.77 724.432 1022.95 724.268C 1023.13 724.105 1023.22 723.861 1023.22 723.536L1023.22 723.536L1023.22 716.205C 1023.22 715.916 1023.14 715.689 1022.98 715.527C 1022.81 715.363 1022.57 715.282 1022.24 715.282L1022.24 715.282L1021.59 715.282L1021.59 715.282L1021.59 714.793" /></clipPath><clipPath id="22"><path id="" clip-rule="evenodd" transform="matrix(1 0 0 1 0 0)" d="M0 1080L1920 1080L1920 1080L1920 0L1920 0L0 0z" /></clipPath><clipPath id="23"><path id="" clip-rule="evenodd" transform="matrix(1 0 0 1 0 0)" d="M1137.43 722.124L1137.43 724.621C 1137.18 724.549 1137 724.512 1136.89 724.512C 1136.71 724.512 1136.42 724.604 1136.02 724.785C 1135.33 725.074 1134.71 725.219 1134.17 725.219C 1132.83 725.219 1131.77 724.73 1131 723.753C 1130.22 722.776 1129.83 721.509 1129.83 719.952C 1129.83 718.396 1130.22 717.101 1131 716.07C 1131.77 715.037 1132.76 714.521 1133.95 714.521C 1134.35 714.521 1134.81 714.612 1135.31 714.794C 1135.6 714.867 1135.82 714.902 1135.96 714.902C 1136.29 714.902 1136.6 714.794 1136.89 714.577L1136.89 714.577L1137.76 717.237L1137.76 717.237L1137.38 717.4C 1137.09 716.821 1136.76 716.368 1136.4 716.043C 1135.6 715.355 1134.81 715.011 1134.01 715.011C 1133.43 715.011 1132.91 715.255 1132.46 715.744C 1132.01 716.233 1131.66 716.839 1131.43 717.562C 1131.19 718.287 1131.08 719.065 1131.08 719.898C 1131.08 720.767 1131.2 721.562 1131.46 722.287C 1131.71 723.011 1132.08 723.609 1132.57 724.079C 1133.06 724.549 1133.63 724.785 1134.28 724.785C 1134.86 724.785 1135.36 724.604 1135.77 724.242C 1136.19 723.88 1136.4 723.427 1136.4 722.884L1136.4 722.884L1136.4 722.07C 1136.4 721.708 1136.3 721.445 1136.1 721.282C 1135.9 721.119 1135.64 721.037 1135.31 721.037L1135.31 721.037L1134.77 721.037L1134.77 721.037L1134.77 720.604L1134.77 720.604L1138.46 720.604L1138.46 720.604L1138.46 721.037C 1138.21 721.037 1138.01 721.092 1137.86 721.201C 1137.57 721.382 1137.43 721.69 1137.43 722.124" /></clipPath><clipPath id="24"><path id="" clip-rule="evenodd" transform="matrix(1 0 0 1 0 0)" d="M0 1080L1920 1080L1920 1080L1920 0L1920 0L0 0z" /></clipPath><clipPath id="25"><path id="" clip-rule="evenodd" transform="matrix(1 0 0 1 0 0)" d="M1250.17 724.947L1249.74 724.947L1249.74 724.947L1243.93 715.988L1243.93 715.988L1243.93 723.318C 1243.93 723.68 1244.04 723.97 1244.25 724.187C 1244.47 724.404 1244.76 724.513 1245.12 724.513L1245.12 724.513L1245.5 724.513L1245.5 724.513L1245.5 724.947L1245.5 724.947L1241.92 724.947L1241.92 724.947L1241.92 724.513L1241.92 724.513L1242.35 724.513C 1242.72 724.513 1243 724.404 1243.2 724.187C 1243.39 723.97 1243.49 723.68 1243.49 723.318L1243.49 723.318L1243.49 716.368C 1243.49 716.007 1243.39 715.735 1243.17 715.553C 1242.95 715.373 1242.68 715.282 1242.35 715.282L1242.35 715.282L1241.92 715.282L1241.92 715.282L1241.92 714.793L1241.92 714.793L1244.47 714.793L1244.47 714.793L1249.68 722.884L1249.68 722.884L1249.68 716.368C 1249.68 716.042 1249.58 715.78 1249.39 715.581C 1249.19 715.382 1248.92 715.282 1248.6 715.282L1248.6 715.282L1248.11 715.282L1248.11 715.282L1248.11 714.793L1248.11 714.793L1251.75 714.793L1251.75 714.793L1251.75 715.282L1251.75 715.282L1251.2 715.282C 1250.88 715.282 1250.63 715.373 1250.44 715.553C 1250.26 715.735 1250.17 716.007 1250.17 716.368" /></clipPath><clipPath id="26"><path id="" clip-rule="evenodd" transform="matrix(1 0 0 1 0 0)" d="M0 1080L1920 1080L1920 1080L1920 0L1920 0L0 0z" /></clipPath><clipPath id="27"><path id="" clip-rule="evenodd" transform="matrix(1 0 0 1 0 0)" d="M0 1080L1920 1080L1920 1080L1920 0L1920 0L0 0z" /></clipPath><clipPath id="28"><path id="" clip-rule="evenodd" transform="matrix(1 0 0 1 0 0)" d="M65 1025L87 1025L87 1025L87 886L87 886L65 886z" /></clipPath><clipPath id="29"><path id="" clip-rule="evenodd" transform="matrix(1 0 0 1 0 0)" d="M65 1025L87 1025L87 1025L87 886L87 886L65 886z" /></clipPath><clipPath id="30"><path id="" clip-rule="evenodd" transform="matrix(1 0 0 1 0 0)" d="M65 1025L87 1025L87 1025L87 886L87 886L65 886z" /></clipPath><clipPath id="31"><path id="" clip-rule="evenodd" transform="matrix(1 0 0 1 0 0)" d="M65.812 96.453L84.13 96.453L84.13 96.453L84.13 90.86084L84.13 90.86084L65.812 90.86084z" /></clipPath><clipPath id="32"><path id="" clip-rule="evenodd" transform="matrix(1 0 0 1 0 0)" d="M65.812 86.52301L90.1839 86.52301L90.1839 86.52301L90.1839 80.93121L90.1839 80.93121L65.812 80.93121z" /></clipPath><clipPath id="33"><path id="" clip-rule="evenodd" transform="matrix(1 0 0 1 0 0)" d="M65.812 76.59003L90.1839 76.59003L90.1839 76.59003L90.1839 70.99786L90.1839 70.99786L65.812 70.99786z" /></clipPath></defs><g transform="matrix(1.333333 0 0 1.333333 0 0)"><g clip-path="url(#1)"><g clip-path="url(#2)"><path id="1" transform="matrix(1 0 0 -1 0 1080)" d="M1821.56 1001.37L1859.302 1001.37L1859.302 1017.294L1821.56 1017.294z" stroke="none" fill="#060001" fill-rule="nonzero" /></g><g clip-path="url(#3)"><path id="2" transform="matrix(1 0 0 -1 0 1080)" d="M1821.56 990.047L1859.302 990.047L1859.302 1005.971L1821.56 1005.971z" stroke="none" fill="#060001" fill-rule="nonzero" /></g><g clip-path="url(#4)"><path id="3" transform="matrix(1 0 0 -1 0 1080)" d="M1821.56 978.721L1859.302 978.721L1859.302 994.6448L1821.56 994.6448z" stroke="none" fill="#060001" fill-rule="nonzero" /></g><g clip-path="url(#5)"><path id="4" transform="matrix(1 0 0 -1 0 1080)" d="M1818.92 76.2102L1859.293 76.2102L1859.293 92.6422L1818.92 92.6422z" stroke="none" fill="#211714" fill-rule="nonzero" /></g><g clip-path="url(#6)"><path id="5" transform="matrix(1 0 0 -1 0 1080)" d="M1830.89 64.2391L1847.322 64.2391L1847.322 104.6121L1830.89 104.6121z" stroke="none" fill="#211714" fill-rule="nonzero" /></g><g clip-path="url(#7)"><g clip-path="url(#8)"><g><g clip-path="url(#9)"><g clip-path="url(#10)"><g clip-path="url(#11)"><path id="6" transform="matrix(1 0 0 -1 0 1080)" d="M583.087 163.539L1336.01 163.539L1336.01 916.461L583.087 916.461z" stroke="none" fill="#000000" fill-rule="nonzero" /></g></g></g></g></g></g><g clip-path="url(#12)"><path id="7" transform="matrix(1 0 0 -1 0 1080)" d="M492.614 244.292L1432.153 244.292L1432.153 836.82L492.614 836.82z" stroke="none" fill="#FFFFFF" fill-rule="nonzero" /></g><g clip-path="url(#13)"><path id="8" transform="matrix(1 0 0 -1 0 1080)" d="M671.303 615.778L1247.791 615.778L1247.791 653.476L671.303 653.476z" stroke="none" fill="#DADADB" fill-rule="nonzero" /></g><g clip-path="url(#14)"><g transform="matrix(1 0 0 1 739.169 301.661)"><g transform="matrix(1 0 0 1 0 0)"><image x="0" y="0" xlink:href="img_01.png" width="730" height="1078" /></g></g></g><g clip-path="url(#15)"><g clip-path="url(#16)"><path id="22" transform="matrix(1 0 0 -1 0 1080)" d="M680.26 350.053L699.545 350.053L699.545 370.207L680.26 370.207z" stroke="none" fill="#480609" fill-rule="nonzero" /></g></g><g clip-path="url(#17)"><g clip-path="url(#18)"><path id="23" transform="matrix(1 0 0 -1 0 1080)" d="M793.546 350.052L812.288 350.052L812.288 370.206L793.546 370.206z" stroke="none" fill="#480609" fill-rule="nonzero" /></g></g><g clip-path="url(#19)"><g clip-path="url(#20)"><path id="24" transform="matrix(1 0 0 -1 0 1080)" d="M905.8 349.781L923.023 349.781L923.023 370.478L905.8 370.478z" stroke="none" fill="#480609" fill-rule="nonzero" /></g></g><g clip-path="url(#21)"><g clip-path="url(#22)"><path id="25" transform="matrix(1 0 0 -1 0 1080)" d="M1016.59 350.052L1030.99 350.052L1030.99 370.207L1016.59 370.207z" stroke="none" fill="#480609" fill-rule="nonzero" /></g></g><g clip-path="url(#23)"><g clip-path="url(#24)"><path id="26" transform="matrix(1 0 0 -1 0 1080)" d="M1124.83 349.781L1143.46 349.781L1143.46 370.479L1124.83 370.479z" stroke="none" fill="#480609" fill-rule="nonzero" /></g></g><g clip-path="url(#25)"><g clip-path="url(#26)"><path id="27" transform="matrix(1 0 0 -1 0 1080)" d="M1236.92 350.053L1256.75 350.053L1256.75 370.207L1236.92 370.207z" stroke="none" fill="#480609" fill-rule="nonzero" /></g></g><g clip-path="url(#27)"></g><g clip-path="url(#28)"><g><g clip-path="url(#29)"><g clip-path="url(#30)"><path id="82" transform="matrix(1 0 0 -1 0 1080)" d="M60 50L92 50L92 199L60 199z" stroke="none" fill="#FFFFFF" fill-rule="nonzero" /><g transform="matrix(0.4912226 0 0 0.4912218 65.2988 885.6645)"><g transform="matrix(1 0 0 1 0 0)"><image x="0" y="0" xlink:href="img_02.png" width="31" height="275" /></g></g></g></g></g></g><g clip-path="url(#31)"><path id="84" transform="matrix(1 0 0 -1 0 1080)" d="M60.812 978.547L89.13 978.547L89.13 994.1392L60.812 994.1392z" stroke="none" fill="#35393A" fill-rule="nonzero" /></g><g clip-path="url(#32)"><path id="85" transform="matrix(1 0 0 -1 0 1080)" d="M60.812 988.477L95.1839 988.477L95.1839 1004.069L60.812 1004.069z" stroke="none" fill="#35393A" fill-rule="nonzero" /></g><g clip-path="url(#33)"><path id="86" transform="matrix(1 0 0 -1 0 1080)" d="M60.812 998.408L95.1839 998.408L95.1839 1014L60.812 1014z" stroke="none" fill="#35393A" fill-rule="nonzero" /></g></g></g></svg>